<svg xmlns="http://www.w3.org/2000/svg" version="1.1" xmlns:xlink="http://www.w3.org/1999/xlink" width="512"
    height="512" x="0" y="0" viewBox="0 0 24 24" style="enable-background:new 0 0 512 512" xml:space="preserve"
    fill-rule="evenodd">
    <g>
        <path
            d="M11.5 20.263H2.95a.2.2 0 0 1-.2-.2v-1.451c0-.83.593-1.562 1.507-2.184 1.632-1.114 4.273-1.816 7.243-1.816a.75.75 0 0 0 0-1.5c-3.322 0-6.263.831-8.089 2.076-1.393.95-2.161 2.157-2.161 3.424v1.451a1.7 1.7 0 0 0 1.7 1.7h8.55a.75.75 0 1 0 0-1.5zM11.5 1.25C8.464 1.25 6 3.714 6 6.75s2.464 5.5 5.5 5.5S17 9.786 17 6.75s-2.464-5.5-5.5-5.5zm0 1.5c2.208 0 4 1.792 4 4s-1.792 4-4 4-4-1.792-4-4 1.792-4 4-4zM17.5 13.938a3.564 3.564 0 0 0 0 7.125c1.966 0 3.563-1.597 3.563-3.563s-1.597-3.562-3.563-3.562zm0 1.5c1.138 0 2.063.924 2.063 2.062s-.925 2.063-2.063 2.063-2.063-.925-2.063-2.063.925-2.062 2.063-2.062z"
            fill="#ffffff" opacity="1" data-original="#000000"></path>
        <path
            d="M18.25 14.687V13a.75.75 0 0 0-1.5 0v1.688a.75.75 0 0 0 1.5-.001zM20.019 16.042l1.193-1.194a.749.749 0 1 0-1.06-1.06l-1.194 1.193a.752.752 0 0 0 0 1.061.752.752 0 0 0 1.061 0zM20.312 18.25H22a.75.75 0 0 0 0-1.5h-1.688a.75.75 0 0 0 0 1.5zM18.958 20.019l1.194 1.193a.749.749 0 1 0 1.06-1.06l-1.193-1.194a.752.752 0 0 0-1.061 0 .752.752 0 0 0 0 1.061zM16.75 20.312V22a.75.75 0 0 0 1.5 0v-1.688a.75.75 0 0 0-1.5 0zM14.981 18.958l-1.193 1.194a.749.749 0 1 0 1.06 1.06l1.194-1.193a.752.752 0 0 0 0-1.061.752.752 0 0 0-1.061 0zM14.687 16.75H13a.75.75 0 0 0 0 1.5h1.687a.75.75 0 1 0 0-1.5zM16.042 14.981l-1.194-1.193a.749.749 0 1 0-1.06 1.06l1.193 1.194a.752.752 0 0 0 1.061 0 .752.752 0 0 0 0-1.061z"
            fill="#ffffff" opacity="1" data-original="#000000"></path>
    </g>
</svg>