<svg xmlns="http://www.w3.org/2000/svg" version="1.1" xmlns:xlink="http://www.w3.org/1999/xlink" width="512"
    height="512" x="0" y="0" viewBox="0 0 32 32" style="enable-background:new 0 0 512 512" xml:space="preserve">
    <g>
        <clipPath id="a">
            <path d="M0 0h32v32H0z" clip-rule="evenodd" fill="#ffffff" opacity="1" data-original="#000000"></path>
        </clipPath>
        <g clip-path="url(#a)">
            <path fill-rule="evenodd"
                d="m4.702 7.168-.128-.257a.99.99 0 0 0-.579-.502.99.99 0 0 0-.763.055.963.963 0 0 0-.502.578.964.964 0 0 0 .055.763l1.32 2.642a.99.99 0 0 0 .579.502.991.991 0 0 0 .87-.117l6-4a.99.99 0 0 0 .427-.636.991.991 0 0 0-.149-.75.964.964 0 0 0-.636-.427.964.964 0 0 0-.75.149L8.501 6.463 5.388 8.54zM16 6c-.276 0-.512.098-.707.293S15 6.723 15 7s.098.512.293.707A.964.964 0 0 0 16 8h14a.964.964 0 0 0 .707-.293c.195-.195.293-.43.293-.707s-.098-.512-.293-.707S30.277 6 30 6zM4.723 15.168l-.129-.257a.964.964 0 0 0-.578-.501.963.963 0 0 0-.763.054.99.99 0 0 0-.502.578.99.99 0 0 0 .055.763l1.32 2.642a.963.963 0 0 0 .579.502.964.964 0 0 0 .87-.117l6-4a.964.964 0 0 0 .426-.636.964.964 0 0 0-.148-.75.963.963 0 0 0-.636-.427.964.964 0 0 0-.75.149L5.408 16.54zM16 15c-.276 0-.512.098-.707.293S15 15.723 15 16s.098.512.293.707.43.293.707.293h14c.276 0 .512-.098.707-.293S31 16.277 31 16s-.098-.512-.293-.707S30.277 15 30 15zM4.723 23.168l-.129-.257a.963.963 0 0 0-.578-.501.963.963 0 0 0-.763.054.99.99 0 0 0-.502.578.99.99 0 0 0 .055.763l1.32 2.642a.963.963 0 0 0 .579.502.964.964 0 0 0 .87-.117l6-4a.99.99 0 0 0 .426-.636.991.991 0 0 0-.148-.75.963.963 0 0 0-.636-.427.964.964 0 0 0-.75.149l-1.944 1.295-3.114 2.077zM16 24c-.276 0-.512.098-.707.293S15 24.723 15 25s.098.512.293.707.43.293.707.293h14c.276 0 .512-.098.707-.293S31 25.277 31 25s-.098-.512-.293-.707S30.277 24 30 24z"
                fill="#ffffff" opacity="1" data-original="#000000"></path>
        </g>
    </g>
</svg>