<svg xmlns="http://www.w3.org/2000/svg" version="1.1" xmlns:xlink="http://www.w3.org/1999/xlink" width="512"
    height="512" x="0" y="0" viewBox="0 0 24 24" style="enable-background:new 0 0 512 512" xml:space="preserve"
    class="">
    <g>
        <path
            d="M19 7a1 1 0 0 0-1 1v11.191A1.92 1.92 0 0 1 15.99 21H8.01A1.92 1.92 0 0 1 6 19.191V8a1 1 0 0 0-2 0v11.191A3.918 3.918 0 0 0 8.01 23h7.98A3.918 3.918 0 0 0 20 19.191V8a1 1 0 0 0-1-1ZM20 4h-4V2a1 1 0 0 0-1-1H9a1 1 0 0 0-1 1v2H4a1 1 0 0 0 0 2h16a1 1 0 0 0 0-2ZM10 4V3h4v1Z"
            fill="#ffffff" opacity="1" data-original="#000000"></path>
        <path d="M11 17v-7a1 1 0 0 0-2 0v7a1 1 0 0 0 2 0ZM15 17v-7a1 1 0 0 0-2 0v7a1 1 0 0 0 2 0Z" fill="#ffffff"
            opacity="1" data-original="#000000"></path>
    </g>
</svg>