<svg xmlns="http://www.w3.org/2000/svg" version="1.1" xmlns:xlink="http://www.w3.org/1999/xlink" width="512"
    height="512" x="0" y="0" viewBox="0 0 24 24" style="enable-background:new 0 0 512 512" xml:space="preserve">
    <g>
        <path fill="#ffffff" fill-rule="evenodd"
            d="M5.636 5.636C8.582 2.691 13.059 2.215 16.5 4.204a1 1 0 0 1-1 1.731 7 7 0 1 0 0 12.13 1 1 0 0 1 1 1.731c-3.441 1.99-7.918 1.514-10.864-1.432a9 9 0 0 1 0-12.728zm12.657 2.657a1 1 0 0 1 1.414 0l1.891 1.891c.179.179.353.352.488.512.148.175.308.396.402.686a2 2 0 0 1 0 1.236 2.02 2.02 0 0 1-.402.687 9.18 9.18 0 0 1-.488.511l-1.89 1.891a1 1 0 0 1-1.415-1.414L19.586 13H12a1 1 0 1 1 0-2h7.586l-1.293-1.293a1 1 0 0 1 0-1.414z"
            clip-rule="evenodd" opacity="1" data-original="#000000"></path>
    </g>
</svg>