<svg xmlns="http://www.w3.org/2000/svg" version="1.1" xmlns:xlink="http://www.w3.org/1999/xlink" width="512"
    height="512" x="0" y="0" viewBox="0 0 6.35 6.35" style="enable-background:new 0 0 512 512" xml:space="preserve">
    <g>
        <path
            d="m.998 1.496-.1-.422a.265.265 0 1 0-.516.123l.264 1.091a.265.265 0 0 0 .318.195l1.092-.261c.344-.084.219-.6-.125-.516l-.525.127a2.259 2.259 0 0 1 4.017 1.163c.029.362.577.303.527-.057C5.797 1.505 4.577.437 3.022.452 2.11.542 1.447.934.998 1.496zM4.29 4.12c-.358.074-.229.613.123.516l.525-.127A2.257 2.257 0 0 1 .92 3.347a.265.265 0 1 0-.526.057 2.794 2.794 0 0 0 3.07 2.478 2.782 2.782 0 0 0 1.881-1.036l.102.423c.065.37.624.236.514-.123L5.7 4.054c-.03-.126-.146-.212-.298-.2z"
            paint-order="stroke fill markers" fill="#ffffff" opacity="1" data-original="#000000"></path>
    </g>
</svg>