<svg xmlns="http://www.w3.org/2000/svg" version="1.1" xmlns:xlink="http://www.w3.org/1999/xlink" width="512"
    height="512" x="0" y="0" viewBox="0 0 512 512" style="enable-background:new 0 0 512 512" xml:space="preserve"
    class="">
    <g>
        <path
            d="m292.2 256 109.9-109.9c10-10 10-26.2 0-36.2s-26.2-10-36.2 0L256 219.8 146.1 109.9c-10-10-26.2-10-36.2 0s-10 26.2 0 36.2L219.8 256 109.9 365.9c-10 10-10 26.2 0 36.2 5 5 11.55 7.5 18.1 7.5s13.1-2.5 18.1-7.5L256 292.2l109.9 109.9c5 5 11.55 7.5 18.1 7.5s13.1-2.5 18.1-7.5c10-10 10-26.2 0-36.2z"
            fill="#ffffff" opacity="1" data-original="#000000" class=""></path>
    </g>
</svg>