<svg xmlns="http://www.w3.org/2000/svg" version="1.1" xmlns:xlink="http://www.w3.org/1999/xlink" width="512"
    height="512" x="0" y="0" viewBox="0 0 512 512" style="enable-background:new 0 0 512 512" xml:space="preserve"
    class="">
    <g>
        <path fill="#f4f4f6"
            d="M256 281c-74.439 0-135-60.561-135-135S181.561 11 256 11s135 60.561 135 135-60.561 135-135 135z"
            opacity="1" data-original="#f4f4f6" class=""></path>
        <path fill="#e2dff4" d="M391 146c0-74.439-60.561-135-135-135v270c74.439 0 135-60.561 135-135z" opacity="1"
            data-original="#e2dff4"></path>
        <path fill="#ff7038"
            d="M227.999 221A15 15 0 0 1 213 206V86a15 15 0 0 1 23.32-12.481l90 60a15.001 15.001 0 0 1 0 24.962l-90 60a14.991 14.991 0 0 1-8.321 2.519z"
            opacity="1" data-original="#ff7038"></path>
        <path fill="#ff1f3d" d="M326.32 133.519 256 86.639v118.722l70.32-46.88a15.001 15.001 0 0 0 0-24.962z"
            opacity="1" data-original="#ff1f3d"></path>
        <path fill="#e2dff4"
            d="M466 501H46c-25.364 0-46-20.636-46-46V297c0-25.364 20.636-46 46-46h420c25.364 0 46 20.636 46 46v158c0 25.364-20.636 46-46 46z"
            opacity="1" data-original="#e2dff4"></path>
        <path fill="#bebcdd" d="M466 251H256v250h210c25.364 0 46-20.636 46-46V297c0-25.364-20.636-46-46-46z" opacity="1"
            data-original="#bebcdd"></path>
        <path fill="#ff7038"
            d="M46 281c-8.822 0-16 7.178-16 16v158c0 8.822 7.178 16 16 16h420c8.822 0 16-7.178 16-16V297c0-8.822-7.178-16-16-16z"
            opacity="1" data-original="#ff7038"></path>
        <path fill="#ff1f3d" d="M466 281H256v190h210c8.822 0 16-7.178 16-16V297c0-8.822-7.178-16-16-16z" opacity="1"
            data-original="#ff1f3d"></path>
        <path fill="#f4f4f6"
            d="M148.837 330.879c-.066-6.863-5.649-12.379-12.497-12.379h-.123c-6.903.067-12.446 5.717-12.379 12.62l.491 50.768-39.931-57.823a12.499 12.499 0 0 0-22.786 7.103V421c0 6.903 5.597 12.5 12.5 12.5 6.904 0 12.5-5.597 12.5-12.5v-49.733l37.958 54.965c3.624 5.234 9.687 7.454 15.449 5.655 5.869-1.833 9.66-7.297 9.66-13.919v-.121zM219.243 343.5c6.903 0 12.5-5.597 12.5-12.5s-5.597-12.5-12.5-12.5h-37.922c-6.904 0-12.5 5.597-12.5 12.5v90c0 6.903 5.596 12.5 12.5 12.5h37.922c6.903 0 12.5-5.597 12.5-12.5s-5.597-12.5-12.5-12.5h-25.422v-20h22.626c6.903 0 12.5-5.596 12.5-12.5s-5.597-12.5-12.5-12.5h-22.626v-20z"
            opacity="1" data-original="#f4f4f6" class=""></path>
        <path fill="#e2dff4"
            d="M428.947 364.982c-10.839-3.998-20.945-8.348-24.271-9.801-1.829-1.571-1.762-3.705-1.632-4.606.193-1.351 1.194-4.659 6.281-6.191 12.135-3.657 23.513 5.413 23.626 5.504l-.08-.066.011-.013a12.453 12.453 0 0 0 8.052 2.944c6.904 0 12.5-5.597 12.5-12.5 0-4.005-1.891-7.561-4.82-9.849-2.894-2.312-22.699-17.13-46.499-9.958-12.896 3.885-22.021 14.068-23.816 26.576-1.689 11.767 3.412 23.086 13.313 29.542.553.36 1.132.676 1.734.944.522.233 12.953 5.767 26.949 10.929 2.849 1.051 12.061 4.939 11.003 10.86-.808 4.523-6.449 9.203-14.491 9.203-8.599 0-16.86-3.452-22.101-9.234-4.636-5.115-12.54-5.505-17.656-.869s-5.505 12.541-.869 17.656c10.048 11.088 24.855 17.447 40.626 17.447 19.573 0 36.018-12.536 39.102-29.808 2.329-13.047-3.531-30.067-26.962-38.71z"
            opacity="1" data-original="#e2dff4"></path>
        <path fill="#f4f4f6"
            d="M356.293 318.906c-6.771-1.344-13.353 3.048-14.7 9.82l-9.464 47.553-15.083-48.958c-2.033-6.598-9.026-10.3-15.627-8.266-4.446 1.369-7.567 4.996-8.514 9.232l-14.858 48.002-9.438-47.714c-1.34-6.772-7.914-11.177-14.688-9.836-6.772 1.339-11.176 7.916-9.836 14.688l17.535 88.648c.118.597.28 1.184.483 1.757a14.544 14.544 0 0 0 13.693 9.668h.098a14.542 14.542 0 0 0 13.767-10.181l15.435-49.869 15.367 49.879a14.543 14.543 0 0 0 13.859 10.171h.098c6.181-.042 11.67-4 13.66-9.852a12.56 12.56 0 0 0 .426-1.585l17.605-88.457c1.349-6.771-3.048-13.353-9.818-14.7z"
            opacity="1" data-original="#f4f4f6" class=""></path>
        <path fill="#e2dff4"
            d="M356.293 318.906c-6.771-1.344-13.353 3.048-14.7 9.82l-9.464 47.553-15.083-48.958c-2.033-6.598-9.026-10.3-15.627-8.266-4.446 1.369-7.567 4.996-8.514 9.232l-14.858 48.002-9.438-47.714c-1.202-6.075-6.618-10.231-12.61-10.057v75.144l5.62 28.413c.118.597.28 1.184.483 1.757a14.544 14.544 0 0 0 13.693 9.668h.098a14.542 14.542 0 0 0 13.767-10.181l15.435-49.869 15.367 49.879a14.543 14.543 0 0 0 13.859 10.171h.098c6.181-.042 11.67-4 13.66-9.852a12.56 12.56 0 0 0 .426-1.585l17.605-88.457c1.35-6.771-3.047-13.353-9.817-14.7z"
            opacity="1" data-original="#e2dff4"></path>
    </g>
</svg>