<svg xmlns="http://www.w3.org/2000/svg" version="1.1" xmlns:xlink="http://www.w3.org/1999/xlink" width="512" height="512" x="0" y="0" viewBox="0 0 512 512" style="enable-background:new 0 0 512 512" xml:space="preserve" class=""><g><path d="M398.5 281h-298c-13.81 0-25-11.19-25-25s11.19-25 25-25h298c13.81 0 25 11.19 25 25s-11.19 25-25 25z" fill="#ffffff" opacity="1" data-original="#000000" class=""></path><path d="M284.01 399.25a24.96 24.96 0 0 1-18.34-8c-9.39-10.12-8.79-25.94 1.33-35.33l107.47-99.67-110.72-99.94c-10.25-9.25-11.06-25.06-1.81-35.31s25.06-11.06 35.31-1.81l131 118.25c5.21 4.7 8.2 11.37 8.25 18.39s-2.85 13.73-8 18.5L301 392.58a24.917 24.917 0 0 1-16.99 6.67z" fill="#ffffff" opacity="1" data-original="#000000" class=""></path></g></svg>